<svg xmlns="http://www.w3.org/2000/svg" viewBox="0 0 480 300" width="480" height="300">
  <defs>
    <linearGradient id="b6" x1="0" y1="0" x2="0.35" y2="1">
      <stop offset="0" stop-color="#1a1430"/><stop offset="1" stop-color="#0b0a14"/>
    </linearGradient>
    <radialGradient id="w6" cx="0.5" cy="0.5" r="0.5">
      <stop offset="0" stop-color="#34d399" stop-opacity="0.42"/>
      <stop offset="1" stop-color="#34d399" stop-opacity="0"/>
    </radialGradient>
    <radialGradient id="v6" cx="0.5" cy="0.5" r="0.75">
      <stop offset="0.55" stop-color="#000000" stop-opacity="0"/>
      <stop offset="1" stop-color="#000000" stop-opacity="0.45"/>
    </radialGradient>
    <pattern id="g6" width="24" height="24" patternUnits="userSpaceOnUse">
      <path d="M24 0H0V24" fill="none" stroke="#34d399" stroke-opacity="0.10"/>
    </pattern>
  </defs>
  <rect width="480" height="300" fill="url(#b6)"/>
  <rect width="480" height="300" fill="url(#g6)"/>
  <ellipse cx="240" cy="150" rx="195" ry="145" fill="url(#w6)"/>
  <rect width="480" height="300" fill="url(#v6)"/>
  <g transform="translate(240 150) scale(1.35)" fill="#ffffff"><g transform="translate(-45 -36)"><rect x="12" y="0" width="12" height="12"/><rect x="48" y="0" width="12" height="12"/><rect x="0" y="12" width="72" height="12"/><rect x="0" y="24" width="72" height="12"/><rect x="12" y="36" width="12" height="12"/><rect x="48" y="36" width="12" height="12"/></g></g>
  <rect x="0.5" y="0.5" width="479" height="299" fill="none" stroke="#34d399" stroke-opacity="0.22"/>
</svg>