<svg xmlns="http://www.w3.org/2000/svg" viewBox="0 0 480 300" width="480" height="300">
  <defs>
    <linearGradient id="b8" x1="0" y1="0" x2="0.35" y2="1">
      <stop offset="0" stop-color="#1a1430"/><stop offset="1" stop-color="#0b0a14"/>
    </linearGradient>
    <radialGradient id="w8" cx="0.5" cy="0.5" r="0.5">
      <stop offset="0" stop-color="#22d3ee" stop-opacity="0.42"/>
      <stop offset="1" stop-color="#22d3ee" stop-opacity="0"/>
    </radialGradient>
    <radialGradient id="v8" cx="0.5" cy="0.5" r="0.75">
      <stop offset="0.55" stop-color="#000000" stop-opacity="0"/>
      <stop offset="1" stop-color="#000000" stop-opacity="0.45"/>
    </radialGradient>
    <pattern id="g8" width="24" height="24" patternUnits="userSpaceOnUse">
      <path d="M24 0H0V24" fill="none" stroke="#22d3ee" stroke-opacity="0.10"/>
    </pattern>
  </defs>
  <rect width="480" height="300" fill="url(#b8)"/>
  <rect width="480" height="300" fill="url(#g8)"/>
  <ellipse cx="240" cy="150" rx="195" ry="145" fill="url(#w8)"/>
  <rect width="480" height="300" fill="url(#v8)"/>
  <g transform="translate(240 150) scale(1.35)" fill="#ffffff"><g stroke="#fff" stroke-width="11" stroke-linecap="round" fill="none">
    <path d="M-4 -18 L10 6"/>
    <path d="M10 6 L-14 26"/>
    <path d="M10 6 L34 22"/>
    <path d="M-4 -14 L-30 -2"/>
    <path d="M-4 -14 L22 -22"/>
  </g>
  <circle cx="0" cy="-38" r="14"/>
  <rect x="-46" y="42" width="92" height="7" rx="3.5" opacity="0.35"/></g>
  <rect x="0.5" y="0.5" width="479" height="299" fill="none" stroke="#22d3ee" stroke-opacity="0.22"/>
</svg>